<svg xmlns="http://www.w3.org/2000/svg" viewBox="0 0 128 128" fill="none">
  <defs>
    <linearGradient id="bg" x1="0" y1="0" x2="1" y2="1">
      <stop offset="0%" stop-color="#1B2D5B"/>
      <stop offset="100%" stop-color="#0F1B3D"/>
    </linearGradient>
  </defs>

  <rect width="128" height="128" rx="24" fill="url(#bg)"/>

  <!-- Falcon icon scaled down -->
  <path d="
    M 50 22
    C 45 22, 37.5 27, 36 34.5
    C 35 42, 37.5 49.5, 42.5 54.5
    L 43.75 55.75
    L 37.5 60.75
    L 32.5 64.5
    L 38.75 62
    L 43.75 59
    C 43.75 59, 45 64.5, 43.75 72
    C 42.5 79.5, 38.75 85.75, 36 90.75
    C 41 88.25, 46 83.25, 49 77
    C 51.5 70.75, 52.5 64.5, 52.5 59.5
    C 57.5 64.5, 65 69.5, 72.5 73.25
    C 80 77, 89 78, 97.5 78.5
    C 90 75.5, 82.5 73.25, 76.25 69.5
    C 70 65.75, 64.5 61.5, 60 57
    C 65 55.5, 70 53.75, 75 51.25
    C 80 49, 86 47.5, 94 47.5
    C 86.5 45, 79 43.75, 72.5 43.75
    C 66 43.75, 61 45, 57 47.5
    C 59 43.75, 57.5 38.75, 56 35
    C 55 27, 52.5 22, 50 22
    Z
  " fill="#C8A44E"/>

  <!-- Eye -->
  <circle cx="49" cy="36" r="2.5" fill="#0F1B3D"/>
</svg>
