<svg xmlns="http://www.w3.org/2000/svg" viewBox="0 0 300 300" fill="none">
  <defs>
    <clipPath id="circle">
      <circle cx="150" cy="150" r="140"/>
    </clipPath>
  </defs>

  <!-- Navy blue background -->
  <circle cx="150" cy="150" r="140" fill="#1B2D5B"/>

  <!-- Crimson red diagonal -->
  <path d="M 10 150 L 240 80 L 290 290 L 10 290 Z" fill="#9B1B30" clip-path="url(#circle)"/>

  <!-- Falcon head -->
  <path d="
    M 175 28
    C 155 25, 125 35, 108 55
    C 92 74, 82 100, 85 125
    C 87 140, 95 155, 108 165
    L 115 170 L 128 168
    C 135 165, 142 158, 148 150
    L 165 142 L 180 148 L 195 140
    C 205 133, 215 122, 218 112
    L 215 105
    C 212 90, 208 72, 198 55
    C 188 38, 175 28, 175 28 Z
  " fill="#1B2D5B"/>

  <path d="
    M 170 35
    C 152 33, 128 42, 115 58
    C 102 74, 95 95, 97 115
    C 99 128, 105 140, 115 150
    L 122 155 L 132 152
    C 138 148, 145 140, 150 132
    L 162 126
    C 168 122, 175 115, 178 108
    L 176 100
    C 174 85, 170 68, 163 55
    C 155 40, 170 35, 170 35 Z
  " fill="#223A6B" opacity="0.6"/>

  <!-- Eye -->
  <ellipse cx="145" cy="95" rx="9" ry="8" fill="white" opacity="0.9"/>
  <ellipse cx="147" cy="94" rx="5" ry="4.5" fill="#1B2D5B"/>
  <circle cx="148" cy="93" r="1.5" fill="white" opacity="0.7"/>

  <!-- Beak -->
  <path d="
    M 178 108
    C 185 112, 198 118, 210 115
    C 218 113, 225 108, 228 100
    C 230 95, 228 90, 222 88
    L 215 90
    C 210 92, 205 98, 200 105
    L 190 112 Z
  " fill="#1B2D5B"/>
  <path d="M 200 105 C 208 100, 218 94, 222 90" stroke="#0F1B3D" stroke-width="1.5" fill="none" opacity="0.4"/>

  <!-- Cityscape -->
  <g fill="#D4A843">
    <path d="M 105 230 L 105 210 C 105 195, 115 180, 130 175 C 145 180, 155 195, 155 210 L 155 230 Z"/>
    <rect x="128" y="168" width="4" height="12"/>
    <rect x="125" y="172" width="10" height="3"/>
    <rect x="60" y="215" width="25" height="35" rx="1"/>
    <rect x="48" y="225" width="18" height="25" rx="1"/>
    <rect x="67" y="205" width="10" height="45" rx="1"/>
    <rect x="158" y="210" width="22" height="40" rx="1"/>
    <rect x="175" y="218" width="18" height="32" rx="1"/>
    <rect x="190" y="222" width="15" height="28" rx="1"/>
    <rect x="65" y="220" width="3" height="4" fill="#9B1B30" opacity="0.5"/>
    <rect x="75" y="220" width="3" height="4" fill="#9B1B30" opacity="0.5"/>
    <rect x="65" y="228" width="3" height="4" fill="#9B1B30" opacity="0.5"/>
    <rect x="75" y="228" width="3" height="4" fill="#9B1B30" opacity="0.5"/>
    <rect x="163" y="218" width="3" height="4" fill="#9B1B30" opacity="0.5"/>
    <rect x="171" y="218" width="3" height="4" fill="#9B1B30" opacity="0.5"/>
    <rect x="163" y="226" width="3" height="4" fill="#9B1B30" opacity="0.5"/>
    <rect x="171" y="226" width="3" height="4" fill="#9B1B30" opacity="0.5"/>
    <rect x="40" y="248" width="175" height="4" rx="2"/>
  </g>

  <!-- Border -->
  <circle cx="150" cy="150" r="140" stroke="#D4A843" stroke-width="2.5" fill="none" opacity="0.4"/>
</svg>
